<?xml version="1.0" encoding="utf-8"?>
<!-- Generator: Adobe Illustrator 19.0.0, SVG Export Plug-In . SVG Version: 6.00 Build 0)  -->
<svg version="1.1" id="Layer_1" xmlns="http://www.w3.org/2000/svg" xmlns:xlink="http://www.w3.org/1999/xlink" x="0px" y="0px"
	 viewBox="0 0 190 190" enable-background="new 0 0 190 190" xml:space="preserve">
<g id="XMLID_9_">
	<path id="XMLID_75_" fill="#FFFFFF" d="M36.3,26.7V107H5.8C5.3,103.1,5,99.1,5,95C5,67.7,17.2,43.2,36.3,26.7z"/>
	<path id="XMLID_55_" fill="#FFFFFF" d="M185,95c0,4.1-0.3,8.1-0.8,12H79.5V6.3C84.5,5.5,89.7,5,95,5C144.7,5,185,45.3,185,95z"/>
	<path id="XMLID_73_" fill="#FFFFFF" d="M179.9,124.8c-12.3,35-45.7,60.2-84.9,60.2c-5.3,0-10.5-0.5-15.5-1.3v-58.8H179.9z"/>
	<path id="XMLID_74_" fill="#FFFFFF" d="M36.3,124.8v38.4c-11.8-10.2-21-23.4-26.3-38.4H36.3z"/>
</g>
<g id="XMLID_10_">
</g>
<g id="XMLID_11_">
</g>
<g id="XMLID_12_">
</g>
<g id="XMLID_13_">
</g>
<g id="XMLID_15_">
</g>
</svg>
