<?xml version="1.0" encoding="utf-8"?>
<!-- Generator: Adobe Illustrator 19.0.0, SVG Export Plug-In . SVG Version: 6.00 Build 0)  -->
<svg version="1.1" id="Layer_1" xmlns="http://www.w3.org/2000/svg" xmlns:xlink="http://www.w3.org/1999/xlink" x="0px" y="0px"
	 viewBox="0 0 170 170" enable-background="new 0 0 170 170" xml:space="preserve">
<path id="XMLID_152_" fill="#FFFFFF" d="M40.5,37.8h54.3V2.2H40.5C19.4,2.2,2.2,19.4,2.2,40.5v127.3h35.6v-66.3h42.7V65.9H37.8V40.5
	C37.8,39,39,37.8,40.5,37.8z"/>
<g id="XMLID_164_">
	<path id="XMLID_218_" fill="#FFFFFF" d="M159.3,57c-3.9-7.6-9-14.2-14.8-19.8c-0.1-0.1-0.2-0.2-0.3-0.3c-0.1-0.1-0.2-0.1-0.2-0.2
		c-10.9-10.3-24.6-17-39.2-19.5V24c4.2,0.8,8.2,2,12.2,3.5l9.1,23.9l-14.9,15.9l-20.6-2.7v46.8h-17l9.6,9.3L79,143.2L54.3,150
		c-2.2-1.4-4.4-3-6.5-4.7v8.4c8.9,6.3,19.1,10.7,29.7,12.8c0.2,0.1,0.3,0.1,0.5,0.2c0.2,0,0.4,0.1,0.6,0.1
		c15.9,2.8,32.8,0.7,48.2-7.3c15.4-8,26.9-20.6,33.7-35.2c0.1-0.2,0.2-0.3,0.3-0.5c0.1-0.2,0.1-0.3,0.2-0.5
		C170.3,102.7,170.4,78.4,159.3,57z M123.8,153.4c-5.8,3-11.7,5.1-17.8,6.3l-20.4-15.2l4.2-22.6l27.9-14.4l20.9,9.6l0.7,25.5
		C134.7,146.7,129.6,150.4,123.8,153.4z M141.3,110.9l-20.7-9.5L116,71.9l15-16l24,7.4c4.6,10.1,6.5,20.8,6.1,31.3L141.3,110.9z"/>
</g>
<g id="XMLID_118_">
</g>
<g id="XMLID_119_">
</g>
<g id="XMLID_120_">
</g>
<g id="XMLID_121_">
</g>
<g id="XMLID_122_">
</g>
</svg>
